<svg xmlns="http://www.w3.org/2000/svg" width="30" height="30" viewBox="0 0 30 30"><path d="M23.012,26.169a3.151,3.151,0,1,0-3.155-3.157A3.161,3.161,0,0,0,23.012,26.169Z" transform="translate(-8.013 -8.012)"/><path d="M33.931,17V13.96h-.4l-2.644.008.01,3.04Z" transform="translate(-12.328 -5.571)"/><path d="M15,0A15,15,0,1,0,30,15,15.017,15.017,0,0,0,15,0Zm8.531,13.25v6.985a3.3,3.3,0,0,1-3.3,3.3H9.766a3.3,3.3,0,0,1-3.3-3.3V9.767a3.3,3.3,0,0,1,3.3-3.3H20.233a3.3,3.3,0,0,1,3.3,3.3Z"/><path d="M25.582,23.769a4.9,4.9,0,1,1-9.448-1.84H13.457v7.342a1.718,1.718,0,0,0,1.719,1.717h11A1.719,1.719,0,0,0,27.9,29.271V21.929H25.218A4.838,4.838,0,0,1,25.582,23.769Z" transform="translate(-5.677 -8.952)"/></svg>